<svg width="39" height="43" viewBox="0 0 39 43" fill="none" xmlns="http://www.w3.org/2000/svg">
  <path
    d="M18.88 42.304C15.424 42.304 12.2667 41.6213 9.408 40.256C6.54933 38.9333 4.26667 37.0133 2.56 34.496C0.853333 31.936 0 28.864 0 25.28C0 21.696 0.704 18.368 2.112 15.296C3.52 12.224 5.39733 9.55733 7.744 7.296C10.0907 4.992 12.736 3.2 15.68 1.92C18.624 0.640001 21.632 0 24.704 0C27.5627 0 30.0587 0.576 32.192 1.728C34.3253 2.83733 35.9893 4.43734 37.184 6.528C38.3787 8.576 38.976 11.0293 38.976 13.888C38.976 15.7227 38.6133 17.7493 37.888 19.968C37.2053 22.1867 36.224 24.2987 34.944 26.304C33.7067 28.2667 32.2347 29.888 30.528 31.168C28.864 32.448 27.0293 33.088 25.024 33.088C23.8293 33.088 22.848 32.768 22.08 32.128C21.312 31.488 20.928 30.592 20.928 29.44C20.928 28.8427 21.0133 28.224 21.184 27.584C21.3973 26.944 21.8027 26.0693 22.4 24.96C22.528 24.7467 22.5067 24.6187 22.336 24.576C22.208 24.4907 22.08 24.5547 21.952 24.768C20.3733 27.1147 18.688 29.0987 16.896 30.72C15.1467 32.2987 13.5253 33.088 12.032 33.088C11.136 33.088 10.4107 32.7893 9.856 32.192C9.344 31.5947 9.088 30.6987 9.088 29.504C9.088 28.0107 9.408 26.368 10.048 24.576C10.7307 22.7413 11.6267 20.928 12.736 19.136C13.8453 17.344 15.104 15.7013 16.512 14.208C17.92 12.7147 19.3707 11.52 20.864 10.624C22.3573 9.68533 23.7867 9.216 25.152 9.216C25.8773 9.216 26.5387 9.408 27.136 9.792C27.7333 10.176 28.16 10.6027 28.416 11.072C28.6293 11.4133 28.8213 11.584 28.992 11.584C29.1627 11.584 29.3333 11.456 29.504 11.2C29.8453 10.6027 30.272 10.304 30.784 10.304C31.1253 10.304 31.3173 10.4533 31.36 10.752C31.4453 11.008 31.4027 11.3067 31.232 11.648L24.384 26.112C23.6587 27.6907 23.36 28.928 23.488 29.824C23.616 30.72 24.2987 31.168 25.536 31.168C27.0293 31.168 28.4373 30.6133 29.76 29.504C31.0827 28.352 32.256 26.9013 33.28 25.152C34.304 23.36 35.0933 21.4827 35.648 19.52C36.2453 17.5573 36.544 15.7653 36.544 14.144C36.544 9.96267 35.4987 6.848 33.408 4.8C31.3173 2.70934 28.3093 1.664 24.384 1.664C21.696 1.664 19.264 2.176 17.088 3.2C14.9547 4.224 13.056 5.61067 11.392 7.36C9.77067 9.06667 8.40533 11.008 7.296 13.184C6.18667 15.3173 5.35467 17.5147 4.8 19.776C4.24533 21.9947 3.968 24.128 3.968 26.176C3.968 29.504 4.62933 32.2347 5.952 34.368C7.31733 36.4587 9.13067 37.9947 11.392 38.976C13.696 39.9573 16.256 40.448 19.072 40.448C21.9307 40.448 24.448 39.872 26.624 38.72C26.9653 38.5493 27.264 38.4427 27.52 38.4C27.8187 38.3573 28.0533 38.5067 28.224 38.848C28.3947 39.36 28.1813 39.808 27.584 40.192C25.024 41.6 22.1227 42.304 18.88 42.304ZM13.376 30.848C14.0587 30.848 14.8907 30.464 15.872 29.696C16.8533 28.8853 17.8773 27.84 18.944 26.56C20.0533 25.2373 21.0987 23.8293 22.08 22.336C23.0613 20.8 23.9147 19.2853 24.64 17.792C25.3653 16.2987 25.856 14.9973 26.112 13.888C26.3253 13.0347 26.3253 12.3307 26.112 11.776C25.9413 11.1787 25.4293 10.88 24.576 10.88C23.5947 10.88 22.5493 11.3707 21.44 12.352C20.3307 13.2907 19.2213 14.528 18.112 16.064C17.0453 17.6 16.064 19.2427 15.168 20.992C14.3147 22.6987 13.6107 24.32 13.056 25.856C12.544 27.392 12.288 28.6507 12.288 29.632C12.288 30.4427 12.6507 30.848 13.376 30.848Z"
    fill="#F2F2F3" />
</svg>