<?xml version="1.0" standalone="no"?>
<!DOCTYPE svg PUBLIC "-//W3C//DTD SVG 20010904//EN"
 "http://www.w3.org/TR/2001/REC-SVG-20010904/DTD/svg10.dtd">
<svg version="1.0" xmlns="http://www.w3.org/2000/svg"
 width="260.000000pt" height="260.000000pt" viewBox="0 0 260.000000 260.000000"
 preserveAspectRatio="xMidYMid meet">
<metadata>
Created by potrace 1.14, written by Peter Selinger 2001-2017
</metadata>
<g transform="translate(0.000000,260.000000) scale(0.100000,-0.100000)"
fill="#000000" stroke="none">
<path d="M0 1300 l0 -1300 1300 0 1300 0 0 1300 0 1300 -1300 0 -1300 0 0
-1300z m1747 866 c195 -63 326 -210 369 -416 54 -254 -80 -635 -292 -829 -79
-72 -149 -109 -236 -123 -192 -32 -278 106 -183 293 43 84 15 76 -53 -15 -78
-105 -195 -217 -264 -252 -60 -31 -130 -37 -171 -15 -110 59 -56 341 116 603
140 215 332 373 475 393 62 8 128 -18 163 -64 28 -38 39 -39 67 -6 25 28 57
33 66 10 3 -9 -66 -167 -160 -367 -138 -291 -167 -361 -171 -408 -5 -50 -3
-60 17 -80 20 -20 30 -22 84 -18 77 7 131 34 195 98 147 147 248 383 258 605
13 292 -100 470 -342 541 -80 23 -265 23 -355 0 -36 -9 -108 -37 -160 -63 -84
-41 -107 -58 -200 -152 -117 -119 -177 -210 -242 -366 -113 -276 -123 -584
-25 -769 37 -70 122 -159 188 -198 122 -72 329 -109 485 -88 76 10 132 26 241
71 40 16 59 3 49 -34 -4 -17 -22 -31 -64 -50 -113 -51 -174 -62 -342 -61 -184
1 -262 18 -410 91 -78 39 -111 63 -181 133 -131 129 -183 246 -196 442 -34
530 381 1035 922 1121 17 3 84 4 150 2 97 -2 136 -8 202 -29z"/>
<path d="M1429 1711 c-108 -69 -228 -227 -329 -436 -113 -231 -141 -374 -75
-391 89 -22 328 236 469 506 90 174 116 277 80 328 -23 33 -87 30 -145 -7z"/>
</g>
</svg>
